<svg width="16" height="18" viewBox="0 0 16 18" fill="none" xmlns="http://www.w3.org/2000/svg">
<path d="M2.9 1L0.5 4.2V15.4C0.5 15.8243 0.668571 16.2313 0.968629 16.5314C1.26869 16.8314 1.67565 17 2.1 17H13.3C13.7243 17 14.1313 16.8314 14.4314 16.5314C14.7314 16.2313 14.9 15.8243 14.9 15.4V4.2L12.5 1H2.9Z" stroke="white" stroke-linecap="round" stroke-linejoin="round"/>
<path d="M0.5 4.2H14.9" stroke="white" stroke-linecap="round" stroke-linejoin="round"/>
<path d="M10.9 7.39999C10.9 8.24869 10.5629 9.06262 9.96274 9.66274C9.36263 10.2629 8.54869 10.6 7.7 10.6C6.85131 10.6 6.03737 10.2629 5.43726 9.66274C4.83714 9.06262 4.5 8.24869 4.5 7.39999" stroke="white" stroke-linecap="round" stroke-linejoin="round"/>
</svg>
