<svg width="40" height="40" viewBox="0 0 40 40" fill="none" xmlns="http://www.w3.org/2000/svg">
<path d="M15.4 12L13 15.2V26.4C13 26.8243 13.1686 27.2313 13.4686 27.5314C13.7687 27.8314 14.1757 28 14.6 28H25.8C26.2243 28 26.6313 27.8314 26.9314 27.5314C27.2314 27.2313 27.4 26.8243 27.4 26.4V15.2L25 12H15.4Z" stroke="#202020" stroke-linecap="round" stroke-linejoin="round"/>
<path d="M13 15.2H27.4" stroke="#202020" stroke-linecap="round" stroke-linejoin="round"/>
<path d="M23.4 18.4C23.4 19.2487 23.0629 20.0627 22.4627 20.6628C21.8626 21.2629 21.0487 21.6 20.2 21.6C19.3513 21.6 18.5374 21.2629 17.9373 20.6628C17.3371 20.0627 17 19.2487 17 18.4" stroke="#202020" stroke-linecap="round" stroke-linejoin="round"/>
</svg>
