<svg width="13" height="12" viewBox="0 0 13 12" fill="none" xmlns="http://www.w3.org/2000/svg">
<path d="M11.293 1.88407C11.0129 1.6038 10.6803 1.38146 10.3142 1.22977C9.94806 1.07808 9.55567 1 9.15939 1C8.76311 1 8.37072 1.07808 8.00462 1.22977C7.63853 1.38146 7.3059 1.6038 7.02576 1.88407L6.44436 2.46547L5.86296 1.88407C5.29708 1.3182 4.52959 1.00029 3.72932 1.00029C2.92906 1.00029 2.16157 1.3182 1.59569 1.88407C1.02982 2.44995 0.711914 3.21744 0.711914 4.0177C0.711914 4.81797 1.02982 5.58546 1.59569 6.15134L2.17709 6.73274L6.44436 11L10.7116 6.73274L11.293 6.15134C11.5733 5.87119 11.7956 5.53857 11.9473 5.17247C12.099 4.80638 12.1771 4.41398 12.1771 4.0177C12.1771 3.62143 12.099 3.22903 11.9473 2.86293C11.7956 2.49684 11.5733 2.16422 11.293 1.88407V1.88407Z" stroke="#969696" stroke-linecap="round" stroke-linejoin="round"/>
</svg>
