<svg width="13" height="12" viewBox="0 0 13 12" fill="none" xmlns="http://www.w3.org/2000/svg">
<path d="M11.2271 1.88407C10.947 1.6038 10.6143 1.38146 10.2482 1.22977C9.88215 1.07808 9.48975 1 9.09347 1C8.69719 1 8.3048 1.07808 7.9387 1.22977C7.57261 1.38146 7.23999 1.6038 6.95984 1.88407L6.37844 2.46547L5.79704 1.88407C5.23116 1.3182 4.46367 1.00029 3.66341 1.00029C2.86314 1.00029 2.09565 1.3182 1.52978 1.88407C0.963901 2.44995 0.645996 3.21744 0.645996 4.0177C0.645996 4.81797 0.963901 5.58546 1.52978 6.15134L2.11118 6.73274L6.37844 11L10.6457 6.73274L11.2271 6.15134C11.5074 5.87119 11.7297 5.53857 11.8814 5.17247C12.0331 4.80638 12.1112 4.41398 12.1112 4.0177C12.1112 3.62143 12.0331 3.22903 11.8814 2.86293C11.7297 2.49684 11.5074 2.16422 11.2271 1.88407V1.88407Z" stroke="#969696" stroke-linecap="round" stroke-linejoin="round"/>
</svg>
