<svg width="10" height="11" viewBox="0 0 10 11" fill="none" xmlns="http://www.w3.org/2000/svg">
<path d="M9.48189 7.73823V9.09309C9.4824 9.21887 9.45664 9.34337 9.40625 9.45861C9.35586 9.57385 9.28196 9.6773 9.18928 9.76233C9.09659 9.84736 8.98717 9.9121 8.86802 9.95239C8.74888 9.99269 8.62262 10.0077 8.49736 9.99633C7.10764 9.84533 5.77273 9.37045 4.59987 8.60986C3.50867 7.91647 2.58353 6.99133 1.89014 5.90013C1.12689 4.72194 0.651907 3.38054 0.503666 1.98458C0.49238 1.85969 0.507222 1.73382 0.547247 1.61498C0.587272 1.49614 0.651604 1.38694 0.736145 1.29433C0.820686 1.20172 0.923585 1.12772 1.03829 1.07706C1.153 1.02639 1.27699 1.00016 1.40239 1.00004H2.75725C2.97643 0.997887 3.18891 1.0755 3.35509 1.21842C3.52128 1.36133 3.62982 1.5598 3.6605 1.77683C3.71768 2.21042 3.82373 2.63614 3.97663 3.04589C4.03739 3.20753 4.05054 3.38321 4.01453 3.5521C3.97851 3.72099 3.89483 3.87602 3.7734 3.99881L3.19984 4.57237C3.84275 5.70302 4.77892 6.63918 5.90957 7.28209L6.48313 6.70853C6.60592 6.58711 6.76094 6.50343 6.92983 6.46741C7.09873 6.43139 7.2744 6.44454 7.43605 6.5053C7.84579 6.6582 8.27152 6.76425 8.7051 6.82144C8.92449 6.85239 9.12484 6.96289 9.26806 7.13193C9.41129 7.30096 9.48739 7.51674 9.48189 7.73823Z" stroke="#D2D2D2" stroke-linecap="round" stroke-linejoin="round"/>
</svg>
